<?xml version="1.0" encoding="utf-8"?>
<!-- Generator: Adobe Illustrator 16.0.0, SVG Export Plug-In . SVG Version: 6.00 Build 0)  -->
<!DOCTYPE svg PUBLIC "-//W3C//DTD SVG 1.1//EN" "http://www.w3.org/Graphics/SVG/1.1/DTD/svg11.dtd">
<svg version="1.1" id="Ebene_1" xmlns="http://www.w3.org/2000/svg" xmlns:xlink="http://www.w3.org/1999/xlink" x="0px" y="0px"
	 width="26.25px" height="26.25px" viewBox="0.5 30.5 26.25 26.25" enable-background="new 0.5 30.5 26.25 26.25"
	 xml:space="preserve">
<path d="M26.75,31.947v23.35c0,0.803-0.65,1.447-1.447,1.447h-6.691v-10.16h3.41l0.51-3.961h-3.926v-2.531
	c0-1.148,0.316-1.928,1.963-1.928h2.098v-3.545c-0.363-0.047-1.605-0.158-3.059-0.158c-3.023,0-5.098,1.846-5.098,5.238v2.924
	h-3.422v3.961h3.422V56.75H1.947C1.15,56.75,0.5,56.1,0.5,55.303V31.947c0-0.797,0.65-1.447,1.447-1.447h23.35
	C26.1,30.5,26.75,31.15,26.75,31.947z"/>
</svg>
