<?xml version="1.0" encoding="utf-8"?>
<!-- Generator: Adobe Illustrator 16.0.0, SVG Export Plug-In . SVG Version: 6.00 Build 0)  -->
<!DOCTYPE svg PUBLIC "-//W3C//DTD SVG 1.1//EN" "http://www.w3.org/Graphics/SVG/1.1/DTD/svg11.dtd">
<svg version="1.1" id="Ebene_1" xmlns="http://www.w3.org/2000/svg" xmlns:xlink="http://www.w3.org/1999/xlink" x="0px" y="0px"
	 width="228.949px" height="68.661px" viewBox="0 0 228.949 68.661" enable-background="new 0 0 228.949 68.661"
	 xml:space="preserve">
<path fill-rule="evenodd" clip-rule="evenodd" d="M5.758,68.661h1.852c1.521,0,2.732-0.272,3.856-1.356
	c1.037-1,1.579-2.346,1.579-3.763c0-1.472-0.551-2.838-1.627-3.846c-1.135-1.059-2.316-1.289-3.809-1.289H5.758V68.661L5.758,68.661
	z M6.406,68.05v-9.031h1.182c1.279,0,2.347,0.221,3.326,1.102c0.969,0.882,1.482,2.126,1.482,3.422c0,1.221-0.494,2.406-1.356,3.278
	c-0.989,0.959-2.104,1.229-3.452,1.229H6.406L6.406,68.05z"/>
<path fill-rule="evenodd" clip-rule="evenodd" d="M17.006,62.807c1.52,0,2.508,1.144,2.508,2.608c0,1.502-0.869,2.798-2.471,2.798
	c-1.521,0-2.481-1.296-2.481-2.73C14.562,64.125,15.561,62.807,17.006,62.807L17.006,62.807z M20.086,62.381h-0.61v1.086h-0.03
	c-0.521-0.797-1.452-1.221-2.422-1.221c-1.891,0-3.072,1.385-3.072,3.236c0,1.831,1.203,3.314,3.102,3.314
	c0.931,0,1.939-0.466,2.393-1.271h0.03v1.136h0.61V62.381L20.086,62.381z"/>
<path d="M25.342,63.253c-0.271-0.591-0.958-1.007-1.598-1.007c-0.911,0-1.715,0.629-1.715,1.577c0,1.067,0.979,1.425,1.83,1.744
	c0.631,0.214,1.232,0.467,1.232,1.253c0,0.773-0.631,1.393-1.416,1.393c-0.834,0-1.338-0.513-1.57-1.256l-0.602,0.17
	c0.262,1.041,1.126,1.67,2.172,1.67c1.124,0,2.025-0.805,2.025-1.958c0-2.279-3.063-1.542-3.063-3.043
	c0-0.543,0.542-0.989,1.076-0.989c0.484,0,0.891,0.271,1.094,0.718L25.342,63.253L25.342,63.253z"/>
<path fill-rule="evenodd" clip-rule="evenodd" d="M33.254,63.806c1.707,0.018,2.937-0.892,2.937-2.686
	c0-0.873-0.301-1.688-1.026-2.211c-0.698-0.492-1.513-0.502-2.346-0.502h-1.279v10.254h0.659v-4.855h0.319l3.354,4.855h0.746
	L33.254,63.806L33.254,63.806z M32.198,63.195v-4.177h0.417c0.601,0,1.287-0.042,1.84,0.221c0.727,0.331,1.087,1.086,1.087,1.863
	c0,0.609-0.233,1.221-0.719,1.617c-0.522,0.434-1.163,0.476-1.802,0.476H32.198L32.198,63.195z"/>
<path fill-rule="evenodd" clip-rule="evenodd" d="M43.57,65.567c0.02-1.813-1.115-3.321-3.014-3.321
	c-1.842,0-3.053,1.501-3.053,3.254c0,1.775,1.182,3.297,3.053,3.297c1.229,0,2.238-0.611,2.811-1.695l-0.514-0.313
	c-0.445,0.854-1.24,1.424-2.22,1.424c-1.454,0-2.559-1.043-2.521-2.646H43.57L43.57,65.567z M38.113,65.009
	c0.117-1.193,1.174-2.202,2.453-2.202c1.288,0,2.249,1.049,2.393,2.202H38.113L38.113,65.009z"/>
<path d="M45.049,57.427v11.234h0.611V65.56c0-1.28,0.262-2.753,1.842-2.753c1.377,0,1.512,0.931,1.512,2.066v3.788h0.609v-3.788
	c0-1.62-0.444-2.627-2.064-2.627c-0.823,0-1.502,0.416-1.87,1.103H45.66v-5.922H45.049L45.049,57.427z"/>
<path fill-rule="evenodd" clip-rule="evenodd" d="M54.147,62.807c1.521,0,2.52,1.144,2.52,2.608c0,1.502-0.872,2.798-2.481,2.798
	c-1.521,0-2.471-1.296-2.471-2.73C51.715,64.125,52.703,62.807,54.147,62.807L54.147,62.807z M57.242,62.381h-0.613v1.086H56.6
	c-0.533-0.797-1.453-1.221-2.424-1.221c-1.89,0-3.072,1.385-3.072,3.236c0,1.831,1.192,3.314,3.102,3.314
	c0.921,0,1.929-0.466,2.395-1.271h0.029v1.136h0.613V62.381L57.242,62.381z"/>
<path fill-rule="evenodd" clip-rule="evenodd" d="M62.369,68.213c-1.551,0-2.472-1.248-2.472-2.721c0-1.492,0.911-2.686,2.501-2.686
	c1.454,0,2.452,1.287,2.452,2.676C64.851,66.917,63.911,68.213,62.369,68.213L62.369,68.213z M59.326,68.661h0.611v-1.136h0.028
	c0.466,0.806,1.464,1.271,2.394,1.271c1.9,0,3.102-1.483,3.102-3.314c0-1.852-1.201-3.236-3.071-3.236
	c-0.97,0-1.891,0.424-2.424,1.221h-0.028v-6.04h-0.611V68.661L59.326,68.661z"/>
<path fill-rule="evenodd" clip-rule="evenodd" d="M67.781,62.381H67.17v6.28h0.611V62.381L67.781,62.381z M67.48,59.714
	c-0.311,0-0.563,0.263-0.563,0.574c0,0.298,0.252,0.551,0.563,0.551s0.553-0.253,0.553-0.551
	C68.033,59.977,67.791,59.714,67.48,59.714L67.48,59.714z"/>
<polygon points="70.724,57.427 70.112,57.427 70.112,68.661 70.724,68.661 70.724,57.427 "/>
<path fill-rule="evenodd" clip-rule="evenodd" d="M73.658,62.381h-0.61v6.28h0.61V62.381L73.658,62.381z M73.368,59.714
	c-0.32,0-0.562,0.263-0.562,0.574c0,0.298,0.241,0.551,0.562,0.551c0.31,0,0.552-0.253,0.552-0.551
	C73.92,59.977,73.678,59.714,73.368,59.714L73.368,59.714z"/>
<polygon points="76.679,62.942 77.784,62.942 77.784,62.381 76.679,62.381 76.679,60.12 76.068,60.12 76.068,62.381 75.371,62.381 
	75.371,62.942 76.068,62.942 76.068,68.661 76.679,68.661 76.679,62.942 "/>
<path fill-rule="evenodd" clip-rule="evenodd" d="M81.271,62.807c1.532,0,2.523,1.144,2.523,2.608c0,1.502-0.873,2.798-2.475,2.798
	c-1.532,0-2.481-1.296-2.481-2.73C78.839,64.125,79.838,62.807,81.271,62.807L81.271,62.807z M84.363,62.381h-0.61v1.086h-0.032
	c-0.527-0.797-1.451-1.221-2.418-1.221c-1.893,0-3.074,1.385-3.074,3.236c0,1.831,1.193,3.314,3.102,3.314
	c0.922,0,1.932-0.466,2.391-1.271h0.032v1.136h0.61V62.381L84.363,62.381z"/>
<polygon points="87.129,62.942 88.229,62.942 88.229,62.381 87.129,62.381 87.129,60.12 86.519,60.12 86.519,62.381 85.824,62.381 
	85.824,62.942 86.519,62.942 86.519,68.661 87.129,68.661 87.129,62.942 "/>
<path fill-rule="evenodd" clip-rule="evenodd" d="M90.138,62.381h-0.611v6.28h0.611V62.381L90.138,62.381z M89.832,59.714
	c-0.306,0-0.553,0.263-0.553,0.574c0,0.298,0.247,0.551,0.553,0.551c0.32,0,0.566-0.253,0.566-0.551
	C90.398,59.977,90.152,59.714,89.832,59.714L89.832,59.714z"/>
<path fill-rule="evenodd" clip-rule="evenodd" d="M95.126,62.246c-1.822,0-3.272,1.481-3.272,3.271c0,1.796,1.464,3.279,3.272,3.279
	c1.845,0,3.31-1.416,3.31-3.287C98.436,63.66,96.971,62.246,95.126,62.246L95.126,62.246z M95.081,62.807
	c1.551,0,2.74,1.184,2.74,2.711c0,1.534-1.198,2.695-2.74,2.695c-1.482,0-2.612-1.248-2.612-2.695
	C92.469,64.076,93.589,62.807,95.081,62.807L95.081,62.807z"/>
<path d="M100.525,62.381h-0.612v6.28h0.612V65.56c0-1.28,0.259-2.753,1.831-2.753c1.367,0,1.521,0.931,1.521,2.066v3.788h0.611
	v-3.788c0-1.62-0.455-2.627-2.073-2.627c-0.813,0-1.494,0.416-1.871,1.103h-0.019V62.381L100.525,62.381z"/>
<path d="M109.75,63.253c-0.271-0.591-0.979-1.007-1.609-1.007c-0.921,0-1.725,0.629-1.725,1.577c0,1.067,0.987,1.425,1.851,1.744
	c0.62,0.214,1.221,0.467,1.221,1.253c0,0.773-0.62,1.393-1.414,1.393c-0.827,0-1.339-0.513-1.562-1.256l-0.602,0.17
	c0.262,1.041,1.105,1.67,2.163,1.67c1.133,0,2.024-0.805,2.024-1.958c0-2.279-3.072-1.542-3.072-3.043
	c0-0.543,0.562-0.989,1.076-0.989c0.504,0,0.911,0.271,1.114,0.718L109.75,63.253L109.75,63.253z"/>
<polygon points="111.967,68.078 117.095,62.381 111.502,62.381 111.502,62.942 115.816,62.942 110.658,68.661 117.055,68.661 
	117.055,68.078 111.967,68.078 "/>
<path fill-rule="evenodd" clip-rule="evenodd" d="M123.651,65.567c0.01-1.813-1.126-3.321-3.024-3.321
	c-1.831,0-3.042,1.501-3.042,3.254c0,1.775,1.193,3.297,3.042,3.297c1.253,0,2.261-0.611,2.821-1.695l-0.524-0.313
	c-0.434,0.854-1.229,1.424-2.201,1.424c-1.461,0-2.555-1.043-2.527-2.646H123.651L123.651,65.567z M118.195,65.009
	c0.117-1.193,1.184-2.202,2.441-2.202c1.311,0,2.26,1.049,2.405,2.202H118.195L118.195,65.009z"/>
<path d="M125.74,62.381h-0.61v6.28h0.61V65.56c0-1.28,0.263-2.753,1.832-2.753c1.388,0,1.523,0.931,1.523,2.066v3.788h0.61v-3.788
	c0-1.62-0.457-2.627-2.075-2.627c-0.813,0-1.492,0.416-1.871,1.103h-0.02V62.381L125.74,62.381z"/>
<polygon points="132.475,62.942 133.568,62.942 133.568,62.381 132.475,62.381 132.475,60.12 131.864,60.12 131.864,62.381 
	131.177,62.381 131.177,62.942 131.864,62.942 131.864,68.661 132.475,68.661 132.475,62.942 "/>
<path d="M135.245,62.381h-0.61v6.28h0.61v-3.219c0-0.911-0.077-2.636,1.289-2.636c0.175,0,0.302,0.049,0.447,0.126l0.329-0.542
	c-0.235-0.109-0.438-0.145-0.669-0.145c-0.669,0-1.126,0.366-1.356,0.949h-0.04V62.381L135.245,62.381z"/>
<path d="M142.23,62.381v3.535c0,1.211-0.136,2.297-1.66,2.297c-1.501,0-1.636-1.086-1.636-2.297v-3.535h-0.61v3.771
	c0,0.627-0.031,1.278,0.366,1.791c0.447,0.581,1.185,0.854,1.88,0.854c0.72,0,1.457-0.272,1.882-0.854
	c0.397-0.513,0.389-1.164,0.389-1.791v-3.771H142.23L142.23,62.381z"/>
<path d="M145.431,62.381h-0.61v6.28h0.61v-3.449c0-1.04,0.253-2.405,1.582-2.405c1.221,0,1.384,0.999,1.384,1.966v3.889h0.633
	v-3.627c0-1.084,0.299-2.228,1.619-2.228c1.18,0,1.346,0.863,1.346,1.821v4.033h0.61v-3.956c0-1.366-0.329-2.459-1.947-2.459
	c-0.806,0-1.493,0.398-1.853,1.142c-0.309-0.735-0.96-1.142-1.765-1.142c-0.669,0-1.288,0.338-1.568,0.907h-0.041V62.381
	L145.431,62.381z"/>
<path fill-rule="evenodd" clip-rule="evenodd" d="M159.746,62.381h-0.611v6.28h0.611V62.381L159.746,62.381z M159.434,59.714
	c-0.299,0-0.551,0.263-0.551,0.574c0,0.298,0.252,0.551,0.551,0.551c0.322,0,0.552-0.253,0.552-0.551
	C159.985,59.977,159.756,59.714,159.434,59.714L159.434,59.714z"/>
<path d="M162.677,62.381h-0.609v6.28h0.609V65.56c0-1.28,0.262-2.753,1.854-2.753c1.365,0,1.501,0.931,1.501,2.066v3.788h0.61
	v-3.788c0-1.62-0.456-2.627-2.074-2.627c-0.814,0-1.492,0.416-1.85,1.103h-0.041V62.381L162.677,62.381z"/>
<polygon points="183.352,68.661 183.972,68.661 181.783,58.068 178.004,67.391 174.233,58.068 172.023,68.661 172.643,68.661 
	174.396,60.17 174.438,60.17 178.004,69 181.58,60.17 181.598,60.17 183.352,68.661 "/>
<path fill-rule="evenodd" clip-rule="evenodd" d="M186.042,59.493c-0.312,0-0.543,0.231-0.543,0.541
	c0,0.291,0.231,0.544,0.543,0.544c0.289,0,0.542-0.253,0.542-0.544C186.584,59.725,186.331,59.493,186.042,59.493L186.042,59.493z
	 M188.592,59.493c-0.312,0-0.543,0.231-0.543,0.541c0,0.291,0.231,0.544,0.543,0.544c0.289,0,0.542-0.253,0.542-0.544
	C189.134,59.725,188.881,59.493,188.592,59.493L188.592,59.493z M188.948,62.381v3.535c0,1.211-0.136,2.297-1.636,2.297
	c-1.523,0-1.66-1.086-1.66-2.297v-3.535h-0.609v3.771c0,0.627-0.009,1.278,0.389,1.791c0.425,0.581,1.162,0.854,1.881,0.854
	c0.695,0,1.433-0.272,1.88-0.854c0.375-0.513,0.366-1.164,0.366-1.791v-3.771H188.948L188.948,62.381z"/>
<path d="M192.172,62.381h-0.61v6.28h0.61V65.56c0-1.28,0.263-2.753,1.831-2.753c1.388,0,1.523,0.931,1.523,2.066v3.788h0.611v-3.788
	c0-1.62-0.458-2.627-2.076-2.627c-0.813,0-1.492,0.416-1.872,1.103h-0.018V62.381L192.172,62.381z"/>
<path fill-rule="evenodd" clip-rule="evenodd" d="M203.033,63.011c-0.619-0.534-1.365-0.765-2.179-0.765
	c-1.863,0-3.237,1.434-3.237,3.254c0,1.831,1.356,3.297,3.205,3.297c0.854,0,1.659-0.321,2.287-0.872v-0.823
	c-0.561,0.688-1.414,1.111-2.306,1.111c-1.482,0-2.577-1.288-2.577-2.713c0-1.424,1.104-2.693,2.586-2.693
	c0.914,0,1.619,0.379,2.221,1.017V63.011L203.033,63.011z"/>
<path d="M204.704,57.427v11.234h0.61V65.56c0-1.28,0.263-2.753,1.832-2.753c1.388,0,1.522,0.931,1.522,2.066v3.788h0.611v-3.788
	c0-1.62-0.457-2.627-2.075-2.627c-0.814,0-1.492,0.416-1.871,1.103h-0.02v-5.922H204.704L204.704,57.427z"/>
<path fill-rule="evenodd" clip-rule="evenodd" d="M216.827,65.567c0.009-1.813-1.126-3.321-3.024-3.321
	c-1.832,0-3.043,1.501-3.043,3.254c0,1.775,1.171,3.297,3.043,3.297c1.229,0,2.237-0.611,2.82-1.695l-0.524-0.313
	c-0.456,0.854-1.229,1.424-2.22,1.424c-1.441,0-2.559-1.043-2.509-2.646H216.827L216.827,65.567z M211.37,65.009
	c0.096-1.193,1.162-2.202,2.441-2.202c1.288,0,2.237,1.049,2.405,2.202H211.37L211.37,65.009z"/>
<path d="M218.916,62.381h-0.61v6.28h0.61V65.56c0-1.28,0.263-2.753,1.831-2.753c1.365,0,1.501,0.931,1.501,2.066v3.788h0.633v-3.788
	c0-1.62-0.456-2.627-2.075-2.627c-0.813,0-1.492,0.416-1.871,1.103h-0.019V62.381L218.916,62.381z"/>
<path fill-rule="evenodd" clip-rule="evenodd" d="M55.258,35.295h2.012c4.24,0,6.971-2.148,7.662-6.555
	c0.755-4.698-1.805-6.437-6.162-6.437h-5.499l-3.281,20.748h4.044L55.258,35.295L55.258,35.295z M56.783,25.664h0.721
	c2.256,0,3.736,0.381,3.31,3.047c-0.432,2.696-1.798,3.225-4.202,3.225h-0.82L56.783,25.664L56.783,25.664z"/>
<path d="M70.553,32.785h3.087l0.511-3.244h-3.086l0.543-3.407c0.18-1.104,0.332-3.331,2.042-3.331c0.576,0,1.04,0.214,1.49,0.458
	l0.543-3.438c-0.522-0.292-1.132-0.43-1.767-0.43c-3.712,0-5.551,2.881-6.068,6.184l-0.632,3.965h-1.288l-0.522,3.244h1.299
	l-1.623,10.267h3.848L70.553,32.785L70.553,32.785z"/>
<path fill-rule="evenodd" clip-rule="evenodd" d="M86.784,36.916l0.071-0.468c0.648-4.073-0.813-7.346-5.248-7.346
	c-4.377,0-7.053,3.213-7.699,7.304c-0.657,4.104,1.431,7.073,5.611,7.073c2.832,0,5.445-1.504,6.803-4.199l-3.45-0.587
	c-0.696,1.073-1.615,1.856-2.885,1.856c-2.003,0-2.362-1.935-2.092-3.634H86.784L86.784,36.916z M78.388,34.512
	c0.412-1.395,1.47-2.713,3.014-2.713c1.484,0,2.153,1.348,2.129,2.713H78.388L78.388,34.512z"/>
<path d="M94.135,29.541h-3.849l-2.145,13.511h3.854l1.06-6.681c0.262-1.623,0.685-4.191,2.971-4.191
	c2.171,0,1.757,2.101,1.499,3.721l-1.122,7.151h3.852l1.299-8.267c0.508-3.124-0.14-5.683-3.773-5.683
	c-1.369,0-2.792,0.469-3.784,1.68h-0.059L94.135,29.541L94.135,29.541z"/>
<path d="M109.537,29.541h-3.864l-2.128,13.511h3.851l1.044-6.681c0.261-1.623,0.705-4.191,2.991-4.191
	c2.168,0,1.758,2.101,1.497,3.721l-1.137,7.151h3.848l1.321-8.267c0.487-3.124-0.146-5.683-3.775-5.683
	c-1.388,0-2.808,0.469-3.805,1.68h-0.038L109.537,29.541L109.537,29.541z"/>
<path fill-rule="evenodd" clip-rule="evenodd" d="M125.12,29.541h-3.847l-2.146,13.511h3.848L125.12,29.541L125.12,29.541z
	 M124.452,21.592c-1.271,0-2.441,1.045-2.64,2.275c-0.201,1.269,0.64,2.285,1.91,2.285s2.438-1.017,2.64-2.285
	C126.561,22.637,125.723,21.592,124.452,21.592L124.452,21.592z"/>
<path fill-rule="evenodd" clip-rule="evenodd" d="M141.293,29.541h-3.848l-0.204,1.289h-0.059c-0.605-1.045-1.877-1.728-3.226-1.728
	c-4.024,0-6.85,3.574-7.422,7.286c-0.585,3.633,1,7.091,4.943,7.091c1.448,0,2.969-0.684,3.972-1.776h0.059l-0.137,0.878
	c-0.328,2.032-0.752,4.437-3.488,4.437c-1.444,0-2.315-0.938-2.294-2.387h-4.062c-0.388,3.615,2.631,5.627,5.933,5.627
	c5.059,0,7.129-3.633,7.819-8.026L141.293,29.541L141.293,29.541z M133.034,40.081c-1.972,0-2.865-1.954-2.583-3.771
	c0.281-1.816,1.814-3.799,3.786-3.799c1.995,0,2.885,1.982,2.603,3.799C136.536,38.127,135.028,40.081,133.034,40.081
	L133.034,40.081z"/>
<path fill-rule="evenodd" clip-rule="evenodd" d="M148.431,29.541h-3.849l-3.288,20.717h3.848l1.345-8.478h0.06
	c0.6,1.095,1.957,1.699,3.323,1.699c3.984,0,6.809-3.575,7.4-7.247c0.555-3.556-1.21-7.13-5.04-7.13
	c-1.426,0-2.963,0.624-3.997,1.68L148.431,29.541L148.431,29.541z M149.57,40.081c-1.994,0-2.885-1.994-2.603-3.81
	c0.281-1.795,1.812-3.76,3.783-3.76c1.994,0,2.888,1.965,2.605,3.76C153.075,38.087,151.542,40.081,149.57,40.081L149.57,40.081z"/>
<path fill-rule="evenodd" clip-rule="evenodd" d="M173.429,29.541h-3.812l-0.201,1.26c-0.755-1.093-2.093-1.698-3.501-1.698
	c-3.865,0-6.706,3.545-7.286,7.13c-0.566,3.654,1.119,7.247,5.063,7.247c1.407,0,2.941-0.604,3.941-1.681h0.037l-0.176,1.253h3.789
	L173.429,29.541L173.429,29.541z M165.111,40.081c-1.973,0-2.862-1.994-2.581-3.81c0.282-1.795,1.812-3.76,3.784-3.76
	c1.994,0,2.904,1.965,2.624,3.76C168.655,38.087,167.105,40.081,165.111,40.081L165.111,40.081z"/>
<path d="M180.316,29.541h-3.848l-2.146,13.511h3.848l0.979-6.075c0.313-2.092,0.969-4.465,3.646-4.465
	c0.564,0,1.095,0.165,1.506,0.498l1.049-3.574c-0.467-0.196-0.999-0.333-1.545-0.333c-1.448,0-2.692,0.653-3.646,1.836h-0.059
	L180.316,29.541L180.316,29.541z"/>
<path fill-rule="evenodd" clip-rule="evenodd" d="M199.32,29.541h-3.79l-0.2,1.26c-0.776-1.093-2.093-1.698-3.5-1.698
	c-3.889,0-6.73,3.545-7.288,7.13c-0.588,3.654,1.097,7.247,5.063,7.247c1.406,0,2.919-0.604,3.919-1.681h0.06l-0.197,1.253h3.788
	L199.32,29.541L199.32,29.541z M191.024,40.081c-1.995,0-2.884-1.994-2.603-3.81c0.304-1.795,1.812-3.76,3.806-3.76
	c1.972,0,2.905,1.965,2.624,3.76C194.548,38.087,192.997,40.081,191.024,40.081L191.024,40.081z"/>
<path fill-rule="evenodd" clip-rule="evenodd" d="M208.89,43.052h3.848l3.699-23.337h-3.848l-1.752,11.067h-0.06
	c-0.68-1.074-2.019-1.68-3.426-1.68c-3.866,0-6.707,3.545-7.286,7.13c-0.589,3.654,1.118,7.247,5.062,7.247
	c1.408,0,2.941-0.604,3.904-1.699h0.06L208.89,43.052L208.89,43.052z M206.547,40.081c-1.972,0-2.862-1.994-2.58-3.81
	c0.281-1.795,1.812-3.76,3.783-3.76c1.994,0,2.887,1.965,2.605,3.76C210.051,38.087,208.541,40.081,206.547,40.081L206.547,40.081z"
	/>
<path fill-rule="evenodd" clip-rule="evenodd" d="M228.716,36.916l0.093-0.468c0.634-4.073-0.835-7.346-5.248-7.346
	c-4.376,0-7.063,3.213-7.721,7.304c-0.636,4.104,1.452,7.073,5.634,7.073c2.832,0,5.423-1.504,6.802-4.199l-3.472-0.587
	c-0.688,1.073-1.614,1.856-2.862,1.856c-2.013,0-2.385-1.935-2.115-3.634H228.716L228.716,36.916z M220.333,34.512
	c0.411-1.395,1.479-2.713,3.021-2.713c1.485,0,2.132,1.348,2.115,2.713H220.333L220.333,34.512z"/>
<path d="M18.328,5.162C18.328,2.317,20.645,0,23.49,0c2.855,0,5.172,2.317,5.172,5.162c0,2.856-2.316,5.169-5.172,5.169
	C20.645,10.331,18.328,8.018,18.328,5.162L18.328,5.162z"/>
<path fill-rule="evenodd" clip-rule="evenodd" d="M32.906,40.356c-2.848,3.23-7.023,5.263-11.654,5.263
	c-8.573,0-15.515-6.942-15.515-15.504c0-6.323,3.786-11.754,9.21-14.174l-2.541,13.748c-0.389,2.115,1.545,4.004,3.437,4.078
	l11.312,0.315c0.602,0.017,1.021,0.212,1.389,0.67L32.906,40.356L32.906,40.356z M25.743,15.261
	c6.392,1.918,11.013,7.844,11.013,14.854c0,1.262-0.145,2.498-0.436,3.687l-4.573-5.804c-0.378-0.445-0.676-0.747-1.192-0.813
	l-5.33-0.636c-0.763-0.106-1.299-0.64-1.197-1.215L25.743,15.261L25.743,15.261z M0,30.115c0-7.639,4.031-14.336,10.071-18.08
	l22.438,0.02c6.027,3.747,9.984,10.442,9.984,18.061c0,11.731-9.51,21.24-21.242,21.24C9.51,51.355,0,41.847,0,30.115L0,30.115z"/>
</svg>
